<svg xmlns="http://www.w3.org/2000/svg" viewBox="0 0 24 24" fill="none" stroke="url(#logo-gradient)" stroke-width="2" stroke-linecap="round" stroke-linejoin="round">
    <defs>
        <linearGradient id="logo-gradient" x1="0%" y1="0%" x2="100%" y2="0%">
            <stop offset="0%" stop-color="#38bdf8" />
            <stop offset="100%" stop-color="#f97316" />
        </linearGradient>
    </defs>
    <path d="M8 4H6a2 2 0 0 0-2 2v3a2 2 0 0 1-2 2 2 2 0 0 1 2 2v3a2 2 0 0 0 2 2h2" />
    <path d="M16 4h2a2 2 0 0 1 2 2v3a2 2 0 0 0 2 2 2 2 0 0 0-2 2v3a2 2 0 0 1-2 2h-2" />
    <path d="M12 12c-2-2.67-4-4-6-4a4 4 0 1 0 0 8c2 0 4-1.33 6-4Zm0 0c2 2.67 4 4 6 4a4 4 0 1 0 0-8c-2 0-4 1.33-6 4Z" />
</svg>